<svg width="114" height="114" viewBox="0 0 114 114" fill="none" xmlns="http://www.w3.org/2000/svg">
<path d="M56.7283 113.457C88.0585 113.457 113.457 88.0585 113.457 56.7283C113.457 25.3981 88.0585 0 56.7283 0C25.3981 0 0 25.3981 0 56.7283C0 88.0585 25.3981 113.457 56.7283 113.457Z" fill="#7839F3"/>
<path d="M37.3242 88.2743H31.3473L32.601 82.0047C33.1819 79.1344 34.7373 76.5534 37.0035 74.6984C39.2696 72.8436 42.1073 71.8293 45.0357 71.8271H51.0541L49.7899 78.0968C49.2137 80.9749 47.6551 83.5636 45.3815 85.4202C43.1076 87.2765 40.2594 88.2852 37.3242 88.2743Z" fill="white"/>
<path d="M57.1561 66.3308H34.3458L35.5998 60.1137C36.1798 57.2375 37.7393 54.6509 40.0122 52.7953C42.2852 50.9396 45.1313 49.9293 48.0655 49.9364H70.8342L69.5802 56.2058C68.9947 59.0674 67.438 61.6384 65.1737 63.4838C62.9095 65.329 60.077 66.3349 57.1561 66.3308Z" fill="white"/>
<path d="M72.9563 44.2521H37.4294L38.6831 37.9824C39.264 35.1124 40.8195 32.5312 43.0856 30.6763C45.3517 28.8215 48.1891 27.8072 51.1178 27.8051H86.6447L85.3907 34.0745C84.8135 36.9467 83.2593 39.5301 80.9925 41.3855C78.7255 43.2409 75.8859 44.2539 72.9563 44.2521Z" fill="white"/>
</svg>
